<?xml version="1.0" encoding="UTF-8" standalone="no"?>
<!-- Created with Inkscape (http://www.inkscape.org/) -->

<svg
   xmlns:dc="http://purl.org/dc/elements/1.1/"
   xmlns:cc="http://creativecommons.org/ns#"
   xmlns:rdf="http://www.w3.org/1999/02/22-rdf-syntax-ns#"
   xmlns:svg="http://www.w3.org/2000/svg"
   xmlns="http://www.w3.org/2000/svg"
   xmlns:sodipodi="http://sodipodi.sourceforge.net/DTD/sodipodi-0.dtd"
   xmlns:inkscape="http://www.inkscape.org/namespaces/inkscape"
   width="258mm"
   height="215mm"
   viewBox="0 0 258 215"
   version="1.1"
   id="svg8"
   inkscape:version="0.92.5 (2060ec1f9f, 2020-04-08)"
   sodipodi:docname="20th Century Studios (2020-).svg">
  <defs
     id="defs2" />
  <sodipodi:namedview
     id="base"
     pagecolor="#ffffff"
     bordercolor="#666666"
     borderopacity="1.0"
     inkscape:pageopacity="0.0"
     inkscape:pageshadow="2"
     inkscape:zoom="0.7"
     inkscape:cx="825.94907"
     inkscape:cy="396.43939"
     inkscape:document-units="mm"
     inkscape:current-layer="layer1"
     showgrid="false"
     inkscape:window-width="1920"
     inkscape:window-height="1017"
     inkscape:window-x="-8"
     inkscape:window-y="-8"
     inkscape:window-maximized="1" />
  <metadata
     id="metadata5">
    <rdf:RDF>
      <cc:Work
         rdf:about="">
        <dc:format>image/svg+xml</dc:format>
        <dc:type
           rdf:resource="http://purl.org/dc/dcmitype/StillImage" />
        <dc:title></dc:title>
      </cc:Work>
    </rdf:RDF>
  </metadata>
  <g
     inkscape:label="Layer 1"
     inkscape:groupmode="layer"
     id="layer1"
     transform="translate(0,-82)">
    <path
       style="fill:#000000;stroke-width:0.11610434"
       d="m 0.04099464,293.26058 v -3.71008 l 0.3773391,-0.0666 c 0.2075365,-0.0366 1.97087116,-0.29878 3.91852136,-0.58254 11.6189969,-1.69283 41.4506339,-6.12996 42.3780829,-6.30327 0.606645,-0.11336 1.166019,-0.24526 1.243051,-0.29312 0.298284,-0.18529 -0.03032,-0.42807 -1.222917,-0.90353 -1.778381,-0.709 -5.623482,-2.63306 -6.703312,-3.35429 -1.232696,-0.82332 -3.222325,-2.8381 -3.930112,-3.97979 -1.100934,-1.77584 -1.577665,-3.49023 -1.577665,-5.67347 0,-3.45196 1.443344,-6.58101 4.307011,-9.33723 2.764597,-2.66088 6.064235,-4.08747 11.301891,-4.88632 1.581896,-0.24127 6.906129,-0.34428 8.722665,-0.16875 0.762049,0.0736 2.090877,0.23653 2.952952,0.36199 1.372303,0.19971 4.397866,0.55164 17.93812,2.08651 1.660292,0.18821 5.787801,0.65835 9.172243,1.04474 3.384441,0.3864 8.452395,0.96383 11.262125,1.28319 7.32104,0.8321 40.86698,4.65235 46.8481,5.33511 7.8419,0.89518 35.77323,4.07637 44.2938,5.04476 4.21459,0.47901 12.49573,1.42173 18.40254,2.09494 5.90681,0.67321 15.31126,1.74404 20.89878,2.37963 5.58752,0.63559 14.06309,1.60121 18.83459,2.14582 4.77151,0.54463 8.72922,0.99022 8.79491,0.99022 0.0809,0 0.11943,3.25645 0.11943,10.10108 v 10.10108 H 129.20707 0.04099464 Z m 0,-109.43361 V 82.525925 H 12.464159 24.887323 v 0.272427 c 0,0.149834 -1.410388,32.000928 -3.134196,70.780198 -1.723807,38.77928 -3.147536,71.08899 -3.163843,71.79935 -0.03413,1.48668 0.118236,2.16893 0.620419,2.77817 0.848176,1.02898 2.399258,1.17475 3.624109,0.34058 0.854948,-0.58226 0.883761,-0.68388 2.213306,-7.80655 0.673473,-3.60794 2.138388,-11.44498 3.255369,-17.41565 1.116979,-5.97067 3.002263,-16.05433 4.189518,-22.40814 1.187255,-6.35381 3.072342,-16.43747 4.189085,-22.40814 1.116741,-5.97067 2.76293,-14.77428 3.658198,-19.56358 0.895267,-4.78931 2.462839,-13.17494 3.483495,-18.63475 5.250631,-28.087279 6.519785,-34.882081 6.733604,-36.050402 0.128556,-0.702431 0.260786,-1.36858 0.293846,-1.48033 0.05717,-0.19324 3.797762,-0.203183 76.444457,-0.203183 h 76.38436 l 0.11626,0.435392 c 0.0639,0.239465 0.55785,2.368528 1.09759,4.731252 0.53973,2.362723 2.08671,9.120602 3.43773,15.017511 1.35101,5.8969 2.43452,10.74352 2.40778,10.77026 -0.0267,0.0267 -1.29747,-0.55925 -2.82386,-1.30218 -1.52638,-0.74294 -3.24547,-1.57359 -3.82018,-1.84589 -0.57472,-0.2723 -1.95926,-0.93903 -3.07677,-1.48163 -1.1175,-0.54259 -3.21834,-1.56267 -4.66853,-2.26683 l -2.63671,-1.28029 -3.13643,1.41171 -3.13642,1.4117 -0.003,4.61515 c -0.002,2.84526 -0.0455,4.61515 -0.1137,4.61515 -0.25891,0 -3.07216,-1.12042 -5.98484,-2.38354 -1.72415,-0.74771 -3.84015,-1.66072 -4.70222,-2.02891 -0.86208,-0.3682 -2.79522,-1.2041 -4.29586,-1.85755 -1.50065,-0.65345 -3.25093,-1.41151 -3.8895,-1.68458 -0.63857,-0.27306 -1.94475,-0.83649 -2.90261,-1.25205 -14.81413,-6.42709 -15.15363,-6.56243 -18.51864,-7.38209 -8.98531,-2.188674 -18.23875,-1.518008 -25.4849,1.84708 -0.98397,0.45696 -3.12388,1.66858 -4.47002,2.53094 -5.89931,3.7792 -12.13485,10.41762 -16.1381,17.1808 -0.58545,0.98907 -0.66218,1.07211 -0.92883,1.00522 -0.730194,-0.18317 -3.90252,-1.61374 -6.38618,-2.87986 -7.816877,-3.98488 -9.644468,-4.75827 -12.802783,-5.41781 -3.335916,-0.69662 -6.53582,-0.57007 -10.376669,0.41038 -3.673059,0.93761 -7.508695,2.81459 -10.746252,5.25871 -4.716426,3.56055 -8.518982,8.4592 -10.358277,13.34408 -0.657503,1.74623 -1.357789,4.40733 -1.7482,6.64322 -0.35763,2.04815 -0.365603,2.24747 -0.08635,2.15883 0.113904,-0.0361 3.523017,-0.82455 7.575808,-1.752 4.05279,-0.92745 7.449732,-1.71144 7.548761,-1.74219 0.113431,-0.0352 0.235334,-0.32425 0.329454,-0.78109 0.228048,-1.1069 0.766808,-2.39556 1.469404,-3.51467 0.924409,-1.47241 1.448086,-2.04595 2.783806,-3.04886 2.573274,-1.9321 5.195856,-2.8274 7.784233,-2.65738 1.301125,0.0855 2.451601,0.50998 3.526382,1.30119 1.655785,1.21892 1.977429,3.56432 0.807116,5.88543 -0.781286,1.54955 -1.632002,2.61093 -4.585542,5.72108 -0.97027,1.02172 -7.64716,8.56803 -14.837533,16.76958 l -13.073406,14.9119 v 3.29528 c 0,3.08406 0.01302,3.29139 0.203183,3.23462 0.11175,-0.0334 4.644174,-1.10455 10.072051,-2.38041 9.342985,-2.19614 24.660421,-5.8049 33.72831,-7.94632 l 4.121704,-0.97335 0.03024,-5.13337 c 0.0286,-4.85524 0.01917,-5.12989 -0.174157,-5.06909 -0.112418,0.0354 -2.398768,0.53798 -5.080778,1.11692 -4.943486,1.06712 -10.652757,2.3016 -13.032712,2.81799 -0.718395,0.15587 -1.306174,0.2361 -1.306174,0.17828 0,-0.23779 0.603637,-1.26915 1.249478,-2.13482 0.898981,-1.20498 1.556121,-1.93573 4.38012,-4.87079 4.288721,-4.45738 6.195602,-6.59872 8.011506,-8.99656 2.980743,-3.93597 4.939779,-7.91938 5.767851,-11.72807 0.23031,-1.0593 0.265423,-1.5539 0.267891,-3.77339 0.0031,-2.80633 -0.142798,-3.79645 -0.886743,-6.01698 -0.189858,-0.56669 -0.323577,-1.05197 -0.29715,-1.07839 0.06344,-0.0634 0.917785,0.32099 3.083654,1.38756 0.97945,0.48232 1.829683,0.89324 1.889408,0.91315 0.05973,0.0199 -0.0972,0.84561 -0.348729,1.83491 -0.926148,3.64268 -1.236708,6.43791 -1.139474,10.25596 0.130066,5.10731 1.151189,9.12053 3.302919,12.98115 1.92849,3.46007 5.34456,6.6436 9.20226,8.57582 3.41727,1.71163 6.55074,2.43695 10.52792,2.43695 h 1.9243 l 4.31036,-1.03955 c 2.37069,-0.57175 5.09406,-1.2277 6.05192,-1.45767 0.95786,-0.22997 2.68201,-0.64434 3.83144,-0.92083 1.14944,-0.2765 3.4483,-0.82737 5.10859,-1.22416 1.6603,-0.39679 3.20158,-0.76705 3.42508,-0.8228 0.92568,-0.23089 4.90028,-3.51246 7.60783,-6.28131 3.42171,-3.49917 5.53411,-6.4548 7.49558,-10.48767 2.41724,-4.96994 3.49079,-9.6663 3.49011,-15.26772 0,-2.74449 -0.12322,-3.92082 -0.61247,-5.86327 -0.88867,-3.52818 -2.02347,-6.31013 -3.69918,-9.0684 -0.25911,-0.4265 -0.4503,-0.79627 -0.42486,-0.82171 0.0254,-0.0254 0.42673,0.0403 0.89177,0.14607 0.7822,0.1779 1.9589,0.65707 6.90468,2.81164 1.02172,0.44509 3.60794,1.56828 5.74717,2.49596 2.13922,0.92768 4.96055,2.15228 6.26963,2.72135 1.30908,0.56906 3.75162,1.63042 5.42788,2.35856 l 3.04774,1.3239 v 13.0485 13.04851 l 0.26123,-0.0648 c 0.40782,-0.10113 6.137,-1.35364 6.19179,-1.35364 0.0268,0 0.0488,-3.30982 0.0488,-7.35516 v -7.35515 l 0.32156,-0.47879 c 0.61843,-0.92082 1.68591,-1.52336 2.70594,-1.52738 0.54598,-0.002 0.69101,0.0439 0.9261,0.29416 l 0.27874,0.2967 -0.0373,7.48229 c -0.0205,4.11526 -0.016,7.48229 0.01,7.48229 0.0632,0 5.18566,-1.02412 5.51861,-1.10333 l 0.26124,-0.0621 v -8.18315 c 4e-5,-4.50073 0.0322,-8.18314 0.0715,-8.18314 0.0596,0 2.83857,1.167 6.08209,2.5541 0.41507,0.1775 1.7735,0.75469 3.01871,1.28265 1.24522,0.52795 2.27314,0.96518 2.28428,0.97163 0.0176,0.0102 1.07784,4.54453 3.35503,14.34884 0.34854,1.50065 0.77394,3.31457 0.94531,4.03095 0.17137,0.71638 0.27928,1.33481 0.23979,1.3743 -0.0395,0.0395 -2.84189,-1.08217 -6.22755,-2.49257 -3.38566,-1.4104 -6.26139,-2.56437 -6.39052,-2.56437 -0.12912,0 -0.69396,0.10723 -1.25518,0.23829 -0.87308,0.20388 -23.9155,5.41599 -27.43414,6.2055 -0.67051,0.15045 -2.29016,0.51618 -3.59924,0.81273 -1.30907,0.29656 -2.92873,0.6623 -3.59923,0.81276 -0.67051,0.15046 -4.48453,1.01231 -8.47562,1.91523 -3.99109,0.90291 -7.80511,1.76513 -8.47562,1.91604 -0.6705,0.1509 -7.72384,1.7443 -15.67408,3.54089 -7.95025,1.79658 -19.05272,4.30524 -24.67217,5.57479 -5.61945,1.26955 -15.676991,3.54246 -22.350088,5.05092 -18.759221,4.24052 -20.640293,4.66548 -23.685285,5.35084 -1.564505,0.35213 -5.927126,1.33859 -9.694712,2.19212 -3.767585,0.85353 -8.966157,2.02874 -11.552381,2.61157 -2.586224,0.58284 -4.820713,1.08905 -4.965531,1.12492 l -0.263305,0.0652 0.0311,2.72681 0.0311,2.72681 2.244438,0.8494 c 1.234441,0.46717 2.27256,0.87752 2.306931,0.91189 0.03437,0.0344 -0.146314,0.39311 -0.401519,0.7972 -1.418541,2.2461 -2.349051,4.86636 -2.750642,7.74565 -0.23474,1.68301 -0.233528,4.66722 0.0025,6.25707 0.313759,2.11305 1.198573,4.46322 2.187634,5.81058 0.774267,1.05476 -0.03393,1.08367 7.559044,-0.27032 3.702402,-0.66023 6.941335,-1.2347 7.197628,-1.27663 0.3533,-0.0578 0.530654,-0.17059 0.733405,-0.46649 l 0.267418,-0.39028 -0.860472,-1.5489 c -0.473261,-0.8519 -1.028251,-1.86239 -1.233312,-2.24554 l -0.372836,-0.69662 -1.079944,1.06068 c -0.896703,0.8807 -1.264984,1.15137 -2.170496,1.5952 -1.280202,0.62749 -2.256824,0.82231 -3.284041,0.65512 -2.534876,-0.41256 -4.021965,-2.75277 -4.01558,-6.31927 0.0094,-5.24499 3.030211,-8.85734 7.216141,-8.62917 1.138868,0.0621 2.151006,0.4524 2.916949,1.12491 0.236441,0.2076 0.429892,0.35779 0.429892,0.33377 0,-0.024 0.548593,-1.23928 1.219095,-2.70056 0.670503,-1.46129 1.216559,-2.71404 1.213459,-2.78388 -0.01506,-0.33924 -1.891351,-1.61359 -3.119915,-2.11901 -0.356311,-0.14658 -0.595592,-0.27001 -0.531735,-0.27429 0.06386,-0.004 1.513141,0.3994 3.22063,0.89706 l 3.104524,0.90483 0.0013,10.48063 0.0013,10.48063 0.261234,-0.061 c 0.233758,-0.0546 4.266595,-0.77333 13.090764,-2.33313 1.628364,-0.28783 3.044257,-0.54816 3.14643,-0.57849 0.13575,-0.0403 0.237351,-0.36573 0.377339,-1.20865 0.105364,-0.63442 0.19157,-1.19863 0.19157,-1.25379 0,-0.0552 -0.796766,0.0485 -1.770591,0.23036 -3.630146,0.67792 -9.932968,1.83322 -10.001286,1.83322 -0.03892,0 -0.07076,-1.13814 -0.07076,-2.52921 v -2.52919 l 4.499043,-0.85073 c 2.474474,-0.46792 4.642722,-0.87759 4.81833,-0.9104 l 0.319287,-0.0597 v -3.1203 c 0,-2.41869 -0.03263,-3.12037 -0.145131,-3.12058 -0.162733,-3.5e-4 -8.970466,1.71927 -9.288347,1.81342 -0.189064,0.056 -0.203182,-0.11293 -0.203182,-2.43097 v -2.49115 l 0.435391,-0.0781 c 1.174073,-0.21051 11.228192,-2.28432 11.268083,-2.32421 0.02524,-0.0252 -0.18624,-1.43649 -0.469969,-3.13611 -0.317348,-1.901 -0.466953,-3.07337 -0.388757,-3.04648 0.06991,0.024 1.107732,0.40388 2.306268,0.84409 l 2.179157,0.80036 -0.03123,11.41045 c -0.02613,9.54981 -0.0055,11.41044 0.126431,11.41042 0.140613,-1e-5 4.23387,-0.71634 5.038012,-0.88165 l 0.319287,-0.0656 v -6.55068 c 0,-3.60286 0.03919,-6.54752 0.08708,-6.54368 0.04789,0.004 2.05969,2.26353 4.470661,5.02152 2.41097,2.75799 4.635983,5.29932 4.944474,5.6474 l 0.560891,0.63287 3.618177,-0.63287 3.61816,-0.63288 0.0165,-5.74716 c 0.009,-3.16094 0.0483,-9.04757 0.0871,-13.08139 l 0.0706,-7.33421 1.5674,0.60555 1.56741,0.60556 -0.0221,0.40097 c -0.0122,0.22054 -0.0835,1.30489 -0.15859,2.40967 -0.0751,1.10478 -0.11735,2.0269 -0.094,2.04916 0.0234,0.0223 1.40091,-0.24005 3.0612,-0.58289 1.66029,-0.34285 3.08402,-0.62494 3.16384,-0.62688 0.11499,-0.003 0.14512,2.03416 0.14512,9.80729 0,5.39595 0.0131,9.80971 0.029,9.80834 0.016,-0.001 1.28295,-0.22699 2.81553,-0.5014 l 2.7865,-0.49892 0.0734,-1.15309 c 0.0404,-0.6342 0.0796,-5.09954 0.0871,-9.92299 l 0.0136,-8.76991 3.14436,-0.63454 c 1.7294,-0.349 3.1881,-0.66115 3.24155,-0.69366 0.0535,-0.0325 -0.0107,-1.56184 -0.14254,-3.39851 -0.13186,-1.83666 -0.21259,-3.36654 -0.1794,-3.39973 0.0332,-0.0332 0.80225,0.2177 1.70904,0.55754 l 1.64868,0.61789 -0.0111,8.58813 c -0.0133,10.23843 0.0869,11.9438 0.8326,14.16113 0.34674,1.03112 0.92653,2.0518 1.13509,1.99831 0.0958,-0.0246 3.95813,-0.71868 8.58298,-1.54247 l 8.40881,-1.49781 0.38154,-0.82578 c 0.46417,-1.00464 0.8777,-2.40527 1.14538,-3.87941 0.23993,-1.32131 0.38301,-7.50101 0.3972,-17.15442 0.005,-3.40041 0.0483,-6.18307 0.0962,-6.18369 0.0479,-5.8e-4 1.03979,0.35204 2.20421,0.7837 l 2.11711,0.78484 0.0308,12.66456 0.0308,12.66456 2.08988,-0.36971 c 1.14943,-0.20334 2.59928,-0.46182 3.22189,-0.57439 l 1.13202,-0.20468 v -3.61041 c 0,-3.07641 0.0237,-3.58526 0.16041,-3.44039 0.0882,0.0935 1.03578,1.47618 2.10566,3.07262 1.06989,1.59643 2.00514,2.96774 2.07835,3.04735 0.10567,0.1149 0.7188,0.0396 2.97392,-0.36496 1.56244,-0.28033 3.23264,-0.57558 3.71157,-0.65611 0.47893,-0.0805 0.93008,-0.17753 1.00255,-0.21557 0.081,-0.0425 -0.75848,-1.38393 -2.17695,-3.47884 -1.26983,-1.87532 -2.30875,-3.42227 -2.30875,-3.43766 0,-0.0154 0.2743,-0.21042 0.60955,-0.4334 1.11364,-0.7407 2.44087,-2.21663 3.37142,-3.74916 1.44427,-2.37852 1.97389,-7.16095 1.17618,-10.62034 -0.50614,-2.19485 -2.26213,-4.26175 -4.04473,-4.76085 -0.29254,-0.0819 -0.5319,-0.1876 -0.5319,-0.23487 0,-0.0473 1.7529,0.44281 3.89533,1.08906 l 3.89532,1.175 0.55602,0.87078 c 0.30581,0.47893 1.54976,2.43819 2.76434,4.35391 1.21457,1.91573 2.89488,4.56531 3.73401,5.88798 l 1.52569,2.40484 v 4.35824 c 0,2.39703 0.0292,4.35823 0.0649,4.35823 0.0357,0 1.52679,-0.26123 3.31361,-0.58052 1.78679,-0.31929 3.29889,-0.58052 3.36021,-0.58052 0.0693,0 0.11149,-1.68054 0.1115,-4.44099 l 5e-5,-4.44099 1.28671,-2.49625 c 0.70769,-1.37293 1.83784,-3.5673 2.51144,-4.87638 1.18823,-2.30915 1.83694,-3.56353 3.66278,-7.08237 0.48045,-0.92593 1.6419,-3.17255 2.58101,-4.99248 0.93911,-1.81994 1.71793,-3.32025 1.73071,-3.33402 0.0128,-0.0138 0.83052,0.29017 1.81718,0.67543 0.98666,0.38526 2.18578,0.84952 2.66471,1.03169 1.9585,0.74495 10.1252,3.94879 10.59227,4.15539 0.49165,0.21748 0.50737,0.24173 0.7016,1.082 0.10927,0.47274 0.74957,3.26288 1.42289,6.20032 0.67332,2.93744 1.74156,7.58742 2.37387,10.33329 1.08934,4.73051 3.90574,16.99676 4.23201,18.43157 0.0835,0.36718 0.1302,0.6676 0.10379,0.6676 -0.0661,0 -7.35832,-2.89392 -23.14176,-9.18382 l -1.45131,-0.57836 -17.76396,3.14364 c -9.77018,1.72901 -24.71281,4.37206 -33.20584,5.87344 -8.49303,1.50139 -20.1441,3.56107 -25.89127,4.57706 -5.74716,1.016 -19.48811,3.44503 -30.535443,5.39785 -11.047328,1.95281 -26.146697,4.62336 -33.554154,5.93456 -7.407456,1.31121 -15.610228,2.76088 -18.228381,3.22153 l -4.760278,0.83753 0.0034,0.83768 c 0.0019,0.46071 0.01494,1.7929 0.02903,2.96039 l 0.02561,2.12273 1.828644,0.68558 c 1.005754,0.37709 2.048965,0.77768 2.318247,0.89022 l 0.489603,0.20464 -0.452945,0.90557 c -1.628523,3.25593 -1.646509,7.89161 -0.0397,10.23171 0.99576,1.45018 2.253925,2.05732 5.446093,2.62806 1.876796,0.33555 2.482056,0.52484 3.040749,0.95097 1.161179,0.88568 0.899546,3.02586 -0.483788,3.95742 -0.753781,0.50761 -1.312454,0.64214 -2.684401,0.64639 -1.906487,0.006 -3.193811,-0.45424 -4.432218,-1.58424 -0.60841,-0.55516 -0.617306,-0.55873 -0.720933,-0.29027 -0.05771,0.14951 -0.556202,1.31396 -1.10777,2.58767 l -1.002848,2.31582 0.264858,0.2546 0.264859,0.25462 7.109177,-0.88321 7.109176,-0.8832 0.297554,-0.74328 c 0.579212,-1.44685 0.769806,-2.49869 0.834875,-4.60751 0.09053,-2.93412 -0.30115,-4.45918 -1.488161,-5.7943 -1.088982,-1.22487 -2.448648,-1.80534 -5.445056,-2.32463 -1.977205,-0.34266 -2.313873,-0.43251 -2.840841,-0.7582 -0.524503,-0.32416 -0.816396,-1.06848 -0.706475,-1.80148 0.238949,-1.59343 1.1079,-2.24408 3.257055,-2.43879 1.515388,-0.13729 3.089953,0.28599 4.131034,1.11054 l 0.453803,0.35942 0.105833,-0.27048 c 0.05821,-0.14877 0.604777,-1.31542 1.214596,-2.59257 l 1.108764,-2.32209 -0.43025,-0.44415 c -0.569607,-0.58804 -1.952671,-1.50885 -2.654466,-1.7673 -0.569531,-0.20973 -1.008541,-0.48986 -0.562288,-0.35878 3.058376,0.89831 6.170115,1.85468 6.225772,1.91344 0.03973,0.0419 -0.0055,0.79736 -0.100436,1.6787 -0.09497,0.88134 -0.144602,1.63051 -0.110287,1.66482 0.03431,0.0343 1.23487,-0.12513 2.667903,-0.3543 1.433034,-0.22919 2.638773,-0.4167 2.67942,-0.4167 0.04065,0 0.0739,4.31037 0.0739,9.57861 0,5.26823 0.03919,9.57838 0.08708,9.57812 0.04789,0 1.105894,-0.13067 2.351113,-0.28978 1.245219,-0.15911 2.329343,-0.28951 2.409165,-0.28977 0.11494,0 0.14513,-2.01457 0.14513,-9.68261 v -9.68213 l 0.261235,-0.0614 c 0.143679,-0.0338 1.384544,-0.2312 2.757478,-0.43868 1.372934,-0.20748 2.536327,-0.41106 2.585319,-0.45239 0.04899,-0.0413 -0.07093,-1.58009 -0.266489,-3.41945 -0.19556,-1.83936 -0.3296,-3.37025 -0.297868,-3.40199 0.05089,-0.0509 1.606781,0.49396 3.573878,1.25153 l 0.660404,0.25433 0.04763,8.78155 c 0.05161,9.51476 0.04272,9.37093 0.729514,11.80025 0.282453,0.99909 1.110645,2.8906 1.468718,3.3544 0.1651,0.21384 0.359977,0.19594 7.473666,-0.6867 4.01728,-0.49845 7.37386,-0.95998 7.459067,-1.02562 0.407117,-0.31365 1.414424,-2.78257 1.869364,-4.58184 0.61763,-2.44271 0.62676,-2.62278 0.67406,-13.28582 0.0243,-5.47577 0.0802,-9.95697 0.12421,-9.95821 0.044,-10e-4 1.24228,0.42979 2.66277,0.95786 l 2.58271,0.96012 5.8e-4,12.52045 5.8e-4,12.52045 0.43539,-0.0687 c 0.23946,-0.0378 4.22329,-0.53949 8.85295,-1.11488 4.62966,-0.57539 8.46981,-1.06493 8.53367,-1.08786 0.20626,-0.0741 1.42445,-1.85197 1.9612,-2.86232 1.01107,-1.90317 1.73776,-4.20983 2.11997,-6.72927 0.2742,-1.80742 0.27209,-5.51417 -0.004,-7.13971 -0.8382,-4.9339 -2.74511,-7.93018 -6.16699,-9.69001 -0.51085,-0.26273 -0.82434,-0.45093 -0.69662,-0.41822 0.12771,0.0327 2.50495,0.74532 5.28275,1.58358 2.77779,0.83826 5.52076,1.66313 6.09547,1.83302 l 1.04494,0.30891 0.0296,10.94096 0.0296,10.94098 0.26064,-0.001 c 0.14336,0 1.48845,-0.15681 2.9891,-0.3476 1.50064,-0.1908 2.79376,-0.34721 2.87358,-0.34761 0.11534,0 0.14513,-3.01593 0.14513,-14.68791 0,-8.07796 0.0271,-14.6872 0.0602,-14.6872 0.0761,0 8.80809,3.26419 8.86053,3.31225 0.0213,0.0195 -0.15188,0.33352 -0.38487,0.69774 -2.25188,3.52025 -3.45357,8.14431 -3.27261,12.59293 0.1446,3.55445 0.91931,6.384 2.38496,8.71081 0.72779,1.15542 1.93755,2.63562 2.22991,2.72841 0.10465,0.0332 4.58423,-0.48939 9.95463,-1.16135 5.3704,-0.67195 9.81222,-1.22173 9.8707,-1.22173 0.0585,0 0.41836,-0.40491 0.79971,-0.89981 2.34203,-3.03928 3.73147,-6.57847 4.22274,-10.75611 0.2,-1.70077 0.0786,-5.15211 -0.23685,-6.73151 -1.02369,-5.12602 -3.91222,-8.94023 -7.93449,-10.47723 -0.436,-0.1666 -0.77359,-0.32205 -0.75021,-0.34544 0.0234,-0.0234 0.61416,0.13289 1.31284,0.34728 0.69867,0.21439 3.75204,1.13375 6.78527,2.04302 3.03322,0.90927 5.53069,1.667 5.54994,1.68386 0.0193,0.0169 -0.0527,0.62445 -0.15996,1.3502 -0.13998,0.9474 -0.17582,1.69611 -0.12708,2.65475 0.15128,2.97499 1.12196,4.97283 3.03915,6.25512 1.46981,0.98308 2.85145,1.39182 5.95334,1.76119 5.46426,0.6507 6.68061,1.23168 6.68525,3.19322 0.004,1.78439 -1.53478,3.19496 -3.9419,3.6129 -1.31402,0.22813 -4.142,0.16019 -5.33026,-0.12808 -1.15475,-0.28012 -2.79492,-1.09162 -3.50414,-1.7337 l -0.60153,-0.54459 -0.51693,0.96141 c -1.22309,2.2748 -2.86613,5.45337 -2.86613,5.54473 0,0.0546 0.24477,0.31463 0.54394,0.57798 0.42031,0.36997 0.61164,0.46554 0.84175,0.42053 0.1638,-0.032 4.76494,-0.6102 10.22474,-1.28481 5.45981,-0.67461 10.04046,-1.25126 10.17924,-1.28143 0.18533,-0.0403 0.40622,-0.37082 0.83204,-1.24497 1.09804,-2.25412 1.46008,-4.07159 1.38189,-6.93699 -0.0553,-2.02558 -0.19055,-2.75132 -0.73495,-3.94332 -0.79999,-1.75157 -2.37944,-3.03829 -4.63222,-3.77367 -1.22803,-0.40087 -2.39717,-0.60611 -5.34248,-0.93787 -2.77132,-0.31217 -3.50059,-0.46368 -4.249,-0.88282 -0.64698,-0.36234 -0.91765,-0.88946 -0.91765,-1.78718 0,-1.74925 1.22434,-2.86704 3.57121,-3.26039 1.39568,-0.23392 3.91995,-0.23023 5.02052,0.007 0.95173,0.20546 2.15362,0.72126 2.76213,1.1854 0.21336,0.16273 0.40172,0.27755 0.41856,0.25514 0.11335,-0.15083 3.55512,-6.2316 3.61068,-6.37918 0.12616,-0.33517 -1.78671,-1.64629 -3.35344,-2.29852 -0.79867,-0.33249 -2.19239,-0.72511 -3.13051,-0.88189 -0.24599,-0.0411 -0.4225,-0.0995 -0.39222,-0.12978 0.0303,-0.0303 2.37005,-0.4451 5.19953,-0.92183 l 5.14449,-0.86679 0.58853,0.22224 c 0.32369,0.12223 4.06295,1.6058 8.30946,3.29682 4.24652,1.69102 9.91531,3.94687 12.59732,5.01301 2.68201,1.06613 4.91488,1.975 4.96194,2.01971 0.0788,0.0749 1.00321,4.0073 3.10125,13.19252 0.89005,3.89665 0.9512,4.10137 1.37557,4.60572 0.39854,0.47363 0.85127,0.67743 1.49831,0.67447 0.99333,-0.005 1.80856,-0.53534 2.17718,-1.41757 0.28192,-0.67472 0.22908,-1.64075 -0.51391,-9.39508 -0.38148,-3.98146 -1.34939,-14.08337 -2.15089,-22.44869 -0.80151,-8.36532 -2.05566,-21.45318 -2.787,-29.08414 -0.73134,-7.63096 -1.7996,-18.78568 -2.3739,-24.78828 -0.57429,-6.00259 -1.56937,-16.39974 -2.21127,-23.10477 -0.64191,-6.70502 -1.55606,-16.266215 -2.03146,-21.247092 -0.47539,-4.980876 -0.89587,-9.330435 -0.9344,-9.665687 l -0.07,-0.60906 h 15.62438 15.62439 v 94.215779 94.21578 l -0.31928,-0.0632 c -0.17561,-0.0348 -2.72265,-0.43877 -5.66009,-0.89779 l -5.3408,-0.83457 -0.0295,-14.70003 -0.0295,-14.70004 -0.56761,-0.57662 c -1.02825,-1.0446 -2.10987,-1.61306 -3.72737,-1.95897 -0.97157,-0.20778 -2.86246,-0.20682 -3.84741,0.002 -0.96157,0.20381 -2.37877,0.78721 -2.99279,1.23201 -0.64826,0.4696 -0.85135,0.92423 -0.90038,2.01552 -0.0427,0.95132 -0.15597,1.22927 -0.50076,1.22927 -0.53679,0 -7.96178,-2.63319 -15.38589,-5.45645 -5.21123,-1.98173 -7.45247,-2.81229 -9.92692,-3.67872 l -2.14793,-0.75209 -2.32209,0.13209 c -1.37338,0.0781 -6.0932,0.5813 -11.55238,1.23158 -19.34827,2.30469 -22.01983,2.62318 -26.704,3.18353 -2.65008,0.31701 -22.11207,2.63991 -43.24887,5.16199 -21.13679,2.52209 -45.954097,5.50094 -55.14956,6.61969 -9.195463,1.11873 -18.26031,2.2201 -20.144102,2.44747 -1.883793,0.22736 -3.843054,0.51907 -4.353913,0.64824 -4.970018,1.25665 -9.795512,5.08707 -12.045804,9.56183 -1.759897,3.4996 -2.019519,7.78877 -0.706293,11.66849 0.810431,2.39429 2.127931,4.60699 4.027697,6.76438 0.380192,0.43175 0.670073,0.80451 0.644178,0.82837 -0.04861,0.0448 -11.203009,1.69558 -11.456964,1.69558 -0.111899,0 -0.142499,-3.39417 -0.142499,-15.80575 0,-11.78386 -0.03476,-15.92178 -0.136623,-16.26175 -0.576112,-1.92289 -4.564179,-3.05989 -7.80956,-2.22649 -1.281719,0.32913 -2.281103,1.03231 -2.772851,1.95101 l -0.252826,0.47233 -0.05805,16.77196 -0.05805,16.77197 -6.2115825,0.89844 c -3.4163701,0.49414 -6.27689071,0.90135 -6.35671244,0.90492 -0.1159984,0.005 -0.14513042,-20.32767 -0.14513042,-101.29456 z M 22.158871,240.96884 c 2.196225,-0.71093 3.969381,-2.41801 4.81688,-4.63739 0.514679,-1.34781 0.561228,-1.81998 0.217479,-2.20601 -0.242295,-0.2721 -0.624165,-0.38804 -3.292794,-0.99975 -3.922923,-0.89923 -6.097606,-1.3399 -8.3702,-1.6961 -2.414673,-0.37847 -2.655808,-0.37649 -2.918271,0.0241 -0.32648,0.49828 -0.291663,2.90951 0.06085,4.21389 0.790407,2.92472 2.580392,4.93176 4.931534,5.52953 0.402937,0.10245 1.114359,0.14057 2.116333,0.11338 1.231388,-0.0334 1.680413,-0.0963 2.438191,-0.34163 z M 241.819,234.4022 c 2.4934,-0.88901 4.3105,-3.0776 4.82963,-5.817 0.16053,-0.84716 0.0242,-3.09205 -0.20155,-3.31776 -0.27412,-0.27413 -1.04603,-0.19338 -3.88557,0.40648 -3.0632,0.64709 -5.745,1.16401 -7.87365,1.51767 -1.64743,0.27369 -2.17657,0.41773 -2.46722,0.6716 -0.68037,0.59428 0.44911,3.26227 2.05057,4.84371 0.93507,0.92339 1.87929,1.47115 3.11047,1.80444 1.15197,0.31185 3.41249,0.25625 4.43732,-0.10914 z m -67.91176,-83.66129 2.55429,-0.59161 0.0299,-7.2218 0.0299,-7.2218 0.27086,-0.068 c 0.14896,-0.0374 1.28494,-0.29032 2.52439,-0.56207 l 2.25354,-0.4941 0.031,-2.78486 0.031,-2.78487 -2.41119,0.61377 c -1.32614,0.33758 -2.47648,0.615 -2.5563,0.6165 -0.11252,0.002 -0.14513,-0.68858 -0.14513,-3.07404 0,-2.57264 -0.0269,-3.07677 -0.16399,-3.07677 -0.12818,0 -2.69161,0.58108 -5.38,1.21954 l -0.26123,0.062 v 13.06174 13.06174 l 0.31929,-0.0819 c 0.1756,-0.0451 1.46872,-0.34813 2.87358,-0.67351 z m -13.70031,108.84855 c -40.54944,-4.51728 -73.647886,-8.24362 -73.5521,-8.28074 0.09579,-0.0371 7.070754,-0.80547 15.49993,-1.70744 8.42917,-0.90195 16.97155,-1.81868 18.98306,-2.03714 2.01151,-0.21848 18.49542,-1.99304 36.63092,-3.94347 18.13549,-1.95045 34.61941,-3.7247 36.63091,-3.94279 2.01151,-0.21809 5.24635,-0.56772 7.18855,-0.77695 l 3.53125,-0.38042 2.97059,1.00462 c 1.63382,0.55254 5.84417,1.97909 9.35633,3.1701 3.51215,1.19102 7.97927,2.70374 9.92692,3.36157 1.94765,0.65784 4.44244,1.50173 5.54398,1.87532 l 2.0028,0.67926 v 9.60854 9.60855 l -0.49344,-0.0129 c -0.2714,-0.007 -33.67026,-3.70884 -74.2197,-8.22612 z M 89.615491,237.60362 c -1.354247,-0.65822 -2.195979,-2.25127 -2.493683,-4.71952 -0.13885,-1.15118 -0.165774,-17.76701 -0.02879,-17.76701 0.04943,0 2.021754,0.72485 4.382939,1.61079 l 4.293064,1.61077 0.03118,2.54365 c 0.01715,1.39901 -0.01642,4.57962 -0.07459,7.06803 -0.118269,5.05884 -0.183207,5.51486 -1.031268,7.24197 -0.822677,1.67541 -2.038626,2.56274 -3.627544,2.64719 -0.743827,0.0395 -0.955419,0.005 -1.451304,-0.23587 z m 22.814499,-9.05793 c 0,-3.59774 0.0341,-7.40625 0.0758,-8.46334 l 0.0758,-1.92199 1.63673,-0.25747 c 2.75635,-0.43361 3.18889,-0.47061 3.99576,-0.34171 1.97837,0.31605 3.42626,1.6495 4.12963,3.80322 0.42067,1.2881 0.53566,2.08491 0.53566,3.71173 0,4.38184 -1.94383,7.86325 -5.10838,9.14912 -0.61262,0.24892 -4.20709,0.86179 -5.05445,0.86179 h -0.28656 z m 45.3968,0.38481 c -1.61081,-0.33573 -3.21519,-1.65485 -4.00177,-3.29023 -0.75734,-1.57456 -0.91588,-2.40537 -0.92249,-4.83406 -0.007,-2.39138 0.16024,-3.32661 0.91021,-5.10486 1.30791,-3.10119 4.01246,-5.10484 7.16994,-5.3118 2.8909,-0.1895 5.02331,1.17022 6.14049,3.91545 0.59502,1.46214 0.84612,3.48095 0.68434,5.50215 -0.35287,4.40877 -2.71956,7.79031 -6.22687,8.89704 -0.90094,0.2843 -2.89806,0.4047 -3.75385,0.22631 z M 94.661619,187.47897 c -3.461337,-4.15365 -6.269602,-7.57582 -6.240591,-7.60483 0.02901,-0.029 2.881932,1.00525 6.339825,2.29836 l 6.287077,2.3511 0.002,5.25372 c 10e-4,2.88955 -0.0199,5.25372 -0.0465,5.25372 -0.0266,0 -2.88041,-3.39843 -6.341745,-7.55207 z m 44.508291,4.93588 c -0.92897,-0.46293 -1.39504,-1.29106 -1.64946,-2.93085 -0.14909,-0.96089 -0.18423,-19.87981 -0.0369,-19.87981 0.0501,0 1.94406,0.69655 4.20878,1.54788 l 4.11769,1.54788 -0.002,7.47924 c -0.001,6.75609 -0.0217,7.5735 -0.21021,8.45431 -0.37175,1.73673 -1.17993,2.93622 -2.3484,3.48547 -1.40914,0.66237 -3.09865,0.78489 -4.07998,0.29588 z m 24.05212,-17.54421 c 0.047,-1.90676 0.10449,-3.48693 0.12785,-3.51149 0.12701,-0.13354 3.35367,-0.70806 3.98165,-0.70896 1.33409,-0.002 2.13175,0.71493 2.34911,2.11112 0.21803,1.40047 -0.38019,3.17026 -1.36591,4.04096 -0.50745,0.44822 -1.3615,0.74413 -3.18516,1.10359 -0.85559,0.16864 -1.65402,0.33475 -1.77426,0.36912 -0.212,0.0606 -0.21606,-0.0431 -0.13328,-3.40434 z m 27.21109,-4.71646 c -0.2978,-0.46214 -1.49418,-2.32929 -2.65861,-4.14923 -1.16443,-1.81993 -2.53233,-3.95275 -3.03976,-4.7396 -0.50743,-0.78684 -0.89595,-1.45728 -0.86337,-1.48986 0.0493,-0.0493 3.53342,1.23676 9.65749,3.56484 0.9216,0.35035 1.156,0.48506 1.13654,0.65319 -0.0135,0.1165 -0.41158,0.94773 -0.88466,1.84719 -0.47308,0.89946 -1.26468,2.42768 -1.7591,3.39605 -0.49443,0.96838 -0.93228,1.76001 -0.97301,1.75918 -0.0407,-8.1e-4 -0.31772,-0.37961 -0.61552,-0.84176 z m -66.85711,-21.93335 c -1.77658,-0.25329 -4.4967,-1.47217 -6.27553,-2.81205 -2.46055,-1.85338 -4.10817,-4.28145 -4.66357,-6.87263 -0.36199,-1.68884 -0.35717,-4.83715 0.01,-6.54977 1.05006,-4.89739 4.06899,-9.54746 8.37764,-12.90411 4.78574,-3.72832 9.95289,-5.51261 14.75619,-5.09554 3.34397,0.29036 5.69215,1.34989 8.09559,3.65284 3.0534,2.92574 4.43051,6.03821 4.42942,10.01113 -10e-4,4.41468 -1.5977,8.68623 -4.57098,12.23011 -3.9115,4.66214 -8.87345,7.50314 -14.50218,8.30334 -1.31482,0.18692 -4.45985,0.20731 -5.65662,0.0367 z m 88.52956,-20.2575 c -9.64986,-4.28186 -10.17338,-4.49528 -11.93732,-4.86654 -1.02898,-0.21658 -2.77994,-0.21407 -3.51776,0.005 -0.78894,0.23429 -1.60597,0.79877 -2.14721,1.4835 l -0.45194,0.57174 v -8.07968 c 0,-4.44382 0.0189,-8.07968 0.0421,-8.07968 0.0431,0 2.07005,0.9633 5.06648,2.40782 2.34384,1.12992 9.77769,4.69349 11.32018,5.42655 l 1.27714,0.60697 0.67568,3.00682 c 0.37163,1.65376 0.9512,4.22157 1.28794,5.70626 0.37162,1.63852 0.56238,2.69698 0.48536,2.69321 -0.0698,-0.003 -1.01509,-0.40032 -2.10066,-0.88202 z"
       id="path3831"
       inkscape:connector-curvature="0"
       sodipodi:nodetypes="ccccccsccscscccccscsscssccccccccsscccssssssccsccccscccsccccscccccscsccscccsscscscccscsscscsccscccscssscscccssccscssccccccccscccccccccssccccccscccsccccsssscccccccsccscccccsccscccccccccccccccsccccccccccccssssccccsccscccscccscccscsscccccccccccccscccccccccscccccccccscccccsccscccccccsscccsscccccsscscccccccssccsccsccsccscccccccccccccccccccccccscccccccccsccccccccsscscsccscscccsscscscccccccsccccccscccccccssccccccsccccccscccccccccccsccscscccccscccccccscccsccscccccscccccccccccccccccccsccccscscccssscssccccccsccccsccsccccccccccccccccccccccccccssccccccccccccsccscccccccccccsccscccccccccscscsccccccccccccccccsccccsscccccccccccccccccsccsccccsscscsccscccccccsssccccccc" />
  </g>
</svg>
